<svg xmlns="http://www.w3.org/2000/svg" viewBox="0 0 1200 750" role="img" aria-label="Chefchaouen" preserveAspectRatio="xMidYMid slice"><defs><linearGradient id="s" x1="0" y1="0" x2="0" y2="1"><stop offset="0" stop-color="#cfe6f5"/><stop offset="1" stop-color="#eef6fb"/></linearGradient></defs><rect width="1200" height="750" fill="url(#s)"/><polygon points="0,750 0,179.3 196.9,290.8 343.3,178.1 495.4,288.9 693.5,173.9 832.8,274.5 1004,192.7 1200,273.3 1200,750" fill="#8fb2a0" /><polygon points="0,750 0,296 143.3,354.7 237.3,312.4 386.4,365.6 544.8,279.4 670.2,356.8 778.7,286.8 913.1,363.1 1040.2,274.7 1200,348.5 1200,750" fill="#6f9a84" /><rect x="-12.2" y="355.7" width="125.3" height="474.3" fill="#5b8ae6" /><rect x="-8.2" y="349.7" width="116.3" height="6" fill="#5b8ae6" /><rect x="112.1" y="361.4" width="123.3" height="468.6" fill="#5b8ae6" /><rect x="116.1" y="355.4" width="114.3" height="6" fill="#5b8ae6" /><rect x="211.9" y="377.9" width="11" height="16" fill="#1d3a8a" rx="5"/><rect x="149.6" y="398.8" width="11" height="16" fill="#1d3a8a" rx="5"/><rect x="161.6" y="380.5" width="11" height="16" fill="#1d3a8a" rx="5"/><rect x="234.4" y="344.6" width="90" height="485.4" fill="#7aa6f0" /><rect x="238.4" y="338.6" width="81" height="6" fill="#7aa6f0" /><rect x="323.5" y="349.7" width="108.7" height="480.3" fill="#2f58c4" /><rect x="327.5" y="343.7" width="99.7" height="6" fill="#2f58c4" /><rect x="376" y="365" width="11" height="16" fill="#1d3a8a" rx="5"/><rect x="431.1" y="380.5" width="76.7" height="449.5" fill="#7aa6f0" /><rect x="435.1" y="374.5" width="67.7" height="6" fill="#7aa6f0" /><rect x="446.6" y="395.1" width="11" height="16" fill="#1d3a8a" rx="5"/><rect x="440.2" y="398.4" width="11" height="16" fill="#1d3a8a" rx="5"/><rect x="506.8" y="379" width="122.5" height="451" fill="#5b8ae6" /><rect x="510.8" y="373" width="113.5" height="6" fill="#5b8ae6" /><rect x="540.4" y="397.9" width="11" height="16" fill="#1d3a8a" rx="5"/><rect x="545.5" y="398.1" width="11" height="16" fill="#1d3a8a" rx="5"/><rect x="628.3" y="343.9" width="125.4" height="486.1" fill="#7aa6f0" /><rect x="651.1" y="375" width="11" height="16" fill="#1d3a8a" rx="5"/><rect x="703" y="363" width="11" height="16" fill="#1d3a8a" rx="5"/><rect x="648.2" y="390.7" width="11" height="16" fill="#1d3a8a" rx="5"/><rect x="752.7" y="378.8" width="96.7" height="451.2" fill="#9cc0f5" /><rect x="756.7" y="372.8" width="87.7" height="6" fill="#9cc0f5" /><rect x="789.4" y="399.9" width="11" height="16" fill="#1d3a8a" rx="5"/><rect x="848.4" y="384.3" width="121.4" height="445.7" fill="#7aa6f0" /><rect x="852.4" y="378.3" width="112.4" height="6" fill="#7aa6f0" /><rect x="917.2" y="399" width="11" height="16" fill="#1d3a8a" rx="5"/><rect x="897.8" y="399.6" width="11" height="16" fill="#1d3a8a" rx="5"/><rect x="968.8" y="348.2" width="114.5" height="481.8" fill="#5b8ae6" /><rect x="972.8" y="342.2" width="105.5" height="6" fill="#5b8ae6" /><rect x="1023.4" y="362.7" width="11" height="16" fill="#1d3a8a" rx="5"/><rect x="1024.7" y="366.3" width="11" height="16" fill="#1d3a8a" rx="5"/><rect x="1004.6" y="386.5" width="11" height="16" fill="#1d3a8a" rx="5"/><rect x="1082.3" y="350.9" width="128.4" height="479.1" fill="#3f6fd8" /><rect x="1111.7" y="382.7" width="11" height="16" fill="#1d3a8a" rx="5"/><rect x="1209.7" y="388.8" width="71.7" height="441.2" fill="#9cc0f5" /><rect x="1253.3" y="403.2" width="11" height="16" fill="#1d3a8a" rx="5"/><rect x="1222.2" y="402.9" width="11" height="16" fill="#1d3a8a" rx="5"/><rect x="-17.6" y="417.5" width="80.9" height="474.5" fill="#7aa6f0" /><rect x="-13.6" y="411.5" width="71.9" height="6" fill="#7aa6f0" /><rect x="39.8" y="446" width="11" height="16" fill="#1d3a8a" rx="5"/><rect x="62.3" y="442.8" width="128.8" height="449.2" fill="#9cc0f5" /><rect x="66.3" y="436.8" width="119.8" height="6" fill="#9cc0f5" /><rect x="190.1" y="405.4" width="71.8" height="486.6" fill="#2f58c4" /><rect x="194.1" y="399.4" width="62.8" height="6" fill="#2f58c4" /><rect x="235.7" y="448.9" width="11" height="16" fill="#1d3a8a" rx="5"/><rect x="260.9" y="402.2" width="97.2" height="489.8" fill="#2f58c4" /><rect x="357.1" y="425" width="128.4" height="467" fill="#3f6fd8" /><rect x="367.4" y="456" width="11" height="16" fill="#1d3a8a" rx="5"/><rect x="373.8" y="457.6" width="11" height="16" fill="#1d3a8a" rx="5"/><rect x="484.6" y="443.9" width="72.2" height="448.1" fill="#7aa6f0" /><rect x="488.6" y="437.9" width="63.2" height="6" fill="#7aa6f0" /><rect x="500.2" y="458.1" width="11" height="16" fill="#1d3a8a" rx="5"/><rect x="555.7" y="440.3" width="123" height="451.7" fill="#5b8ae6" /><rect x="559.7" y="434.3" width="114" height="6" fill="#5b8ae6" /><rect x="677.7" y="428.2" width="78.3" height="463.8" fill="#2f58c4" /><rect x="681.7" y="422.2" width="69.3" height="6" fill="#2f58c4" /><rect x="727.7" y="450.3" width="11" height="16" fill="#1d3a8a" rx="5"/><rect x="755" y="429.4" width="92.9" height="462.6" fill="#2f58c4" /><rect x="759" y="423.4" width="83.9" height="6" fill="#2f58c4" /><rect x="787" y="443.9" width="11" height="16" fill="#1d3a8a" rx="5"/><rect x="768.8" y="456.8" width="11" height="16" fill="#1d3a8a" rx="5"/><rect x="824.5" y="452.6" width="11" height="16" fill="#1d3a8a" rx="5"/><rect x="846.9" y="424.5" width="100.5" height="467.5" fill="#9cc0f5" /><rect x="850.9" y="418.5" width="91.5" height="6" fill="#9cc0f5" /><rect x="893.6" y="453.1" width="11" height="16" fill="#1d3a8a" rx="5"/><rect x="867.5" y="442.5" width="11" height="16" fill="#1d3a8a" rx="5"/><rect x="946.4" y="405.6" width="91.9" height="486.4" fill="#7aa6f0" /><rect x="969.4" y="426.8" width="11" height="16" fill="#1d3a8a" rx="5"/><rect x="1010.6" y="427" width="11" height="16" fill="#1d3a8a" rx="5"/><rect x="1037.3" y="444" width="96.7" height="448" fill="#3f6fd8" /><rect x="1072.1" y="462" width="11" height="16" fill="#1d3a8a" rx="5"/><rect x="1133" y="422.5" width="128.7" height="469.5" fill="#7aa6f0" /><rect x="1137" y="416.5" width="119.7" height="6" fill="#7aa6f0" /><rect x="1206.2" y="460.4" width="11" height="16" fill="#1d3a8a" rx="5"/><rect x="1165.1" y="450.8" width="11" height="16" fill="#1d3a8a" rx="5"/><rect x="1184" y="446.9" width="11" height="16" fill="#1d3a8a" rx="5"/><rect x="-31.7" y="507" width="128.5" height="447" fill="#3f6fd8" /><rect x="-5.7" y="521.3" width="11" height="16" fill="#1d3a8a" rx="5"/><rect x="39.8" y="522" width="11" height="16" fill="#1d3a8a" rx="5"/><rect x="63" y="521.7" width="11" height="16" fill="#1d3a8a" rx="5"/><rect x="95.8" y="498" width="128.6" height="456" fill="#9cc0f5" /><rect x="99.8" y="492" width="119.6" height="6" fill="#9cc0f5" /><rect x="172.9" y="512.6" width="11" height="16" fill="#1d3a8a" rx="5"/><rect x="189.8" y="519.1" width="11" height="16" fill="#1d3a8a" rx="5"/><rect x="134.1" y="514.3" width="11" height="16" fill="#1d3a8a" rx="5"/><rect x="223.4" y="484.9" width="122" height="469.1" fill="#9cc0f5" /><rect x="227.4" y="478.9" width="113" height="6" fill="#9cc0f5" /><rect x="287.1" y="505.4" width="11" height="16" fill="#1d3a8a" rx="5"/><rect x="318.4" y="506.7" width="11" height="16" fill="#1d3a8a" rx="5"/><rect x="344.4" y="466.3" width="117.9" height="487.7" fill="#9cc0f5" /><rect x="348.4" y="460.3" width="108.9" height="6" fill="#9cc0f5" /><rect x="410.3" y="488.4" width="11" height="16" fill="#1d3a8a" rx="5"/><rect x="356.6" y="503.5" width="11" height="16" fill="#1d3a8a" rx="5"/><rect x="461.2" y="467.7" width="72.9" height="486.3" fill="#9cc0f5" /><rect x="465.2" y="461.7" width="63.9" height="6" fill="#9cc0f5" /><rect x="485.9" y="520.8" width="11" height="16" fill="#1d3a8a" rx="5"/><rect x="477" y="505.5" width="11" height="16" fill="#1d3a8a" rx="5"/><rect x="485.9" y="482.8" width="11" height="16" fill="#1d3a8a" rx="5"/><rect x="533.2" y="485.9" width="105.5" height="468.1" fill="#9cc0f5" /><rect x="537.2" y="479.9" width="96.5" height="6" fill="#9cc0f5" /><rect x="547.7" y="523.9" width="11" height="16" fill="#1d3a8a" rx="5"/><rect x="567.7" y="510.3" width="11" height="16" fill="#1d3a8a" rx="5"/><rect x="571.2" y="522.3" width="11" height="16" fill="#1d3a8a" rx="5"/><rect x="637.7" y="488.4" width="128.1" height="465.6" fill="#2f58c4" /><rect x="641.7" y="482.4" width="119.1" height="6" fill="#2f58c4" /><rect x="732.7" y="506.1" width="11" height="16" fill="#1d3a8a" rx="5"/><rect x="698.8" y="509.9" width="11" height="16" fill="#1d3a8a" rx="5"/><rect x="677.6" y="510.1" width="11" height="16" fill="#1d3a8a" rx="5"/><rect x="764.8" y="512.2" width="82.5" height="441.8" fill="#9cc0f5" /><rect x="768.8" y="506.2" width="73.5" height="6" fill="#9cc0f5" /><rect x="806.6" y="526.3" width="11" height="16" fill="#1d3a8a" rx="5"/><rect x="846.3" y="507.9" width="82.7" height="446.1" fill="#5b8ae6" /><rect x="856.5" y="522.2" width="11" height="16" fill="#1d3a8a" rx="5"/><rect x="890.9" y="522.2" width="11" height="16" fill="#1d3a8a" rx="5"/><rect x="869" y="523.3" width="11" height="16" fill="#1d3a8a" rx="5"/><rect x="928" y="490.2" width="122.5" height="463.8" fill="#3f6fd8" /><rect x="1023.4" y="506.4" width="11" height="16" fill="#1d3a8a" rx="5"/><rect x="1009.9" y="509.3" width="11" height="16" fill="#1d3a8a" rx="5"/><rect x="1049.5" y="504.7" width="78.2" height="449.3" fill="#7aa6f0" /><rect x="1062.1" y="522" width="11" height="16" fill="#1d3a8a" rx="5"/><rect x="1085.7" y="522.4" width="11" height="16" fill="#1d3a8a" rx="5"/><rect x="1126.7" y="510.2" width="81.6" height="443.8" fill="#5b8ae6" /><rect x="1130.7" y="504.2" width="72.6" height="6" fill="#5b8ae6" /><rect x="1207.3" y="487.3" width="130.6" height="466.7" fill="#2f58c4" /><rect x="1217.6" y="518.4" width="11" height="16" fill="#1d3a8a" rx="5"/><rect x="12" y="528.6" width="126.5" height="487.4" fill="#3f6fd8" /><rect x="16" y="522.6" width="117.5" height="6" fill="#3f6fd8" /><rect x="60.5" y="565.6" width="11" height="16" fill="#1d3a8a" rx="5"/><rect x="32.4" y="550.9" width="11" height="16" fill="#1d3a8a" rx="5"/><rect x="137.5" y="564.9" width="97.7" height="451.1" fill="#2f58c4" /><rect x="234.2" y="540.5" width="76.1" height="475.5" fill="#2f58c4" /><rect x="238.2" y="534.5" width="67.1" height="6" fill="#2f58c4" /><rect x="258.4" y="556.3" width="11" height="16" fill="#1d3a8a" rx="5"/><rect x="277.5" y="573.1" width="11" height="16" fill="#1d3a8a" rx="5"/><rect x="271.9" y="574.1" width="11" height="16" fill="#1d3a8a" rx="5"/><rect x="309.3" y="557.9" width="129.2" height="458.1" fill="#7aa6f0" /><rect x="382.2" y="576.3" width="11" height="16" fill="#1d3a8a" rx="5"/><rect x="325.7" y="578.6" width="11" height="16" fill="#1d3a8a" rx="5"/><rect x="437.6" y="546.5" width="114.1" height="469.5" fill="#2f58c4" /><rect x="460.7" y="565" width="11" height="16" fill="#1d3a8a" rx="5"/><rect x="550.6" y="535.2" width="90.4" height="480.8" fill="#5b8ae6" /><rect x="640" y="574.1" width="76.9" height="441.9" fill="#7aa6f0" /><rect x="685.7" y="588.4" width="11" height="16" fill="#1d3a8a" rx="5"/><rect x="665" y="588.3" width="11" height="16" fill="#1d3a8a" rx="5"/><rect x="715.9" y="537.1" width="89.3" height="478.9" fill="#9cc0f5" /><rect x="719.9" y="531.1" width="80.3" height="6" fill="#9cc0f5" /><rect x="730.2" y="578.5" width="11" height="16" fill="#1d3a8a" rx="5"/><rect x="804.2" y="534.6" width="113.4" height="481.4" fill="#5b8ae6" /><rect x="808.2" y="528.6" width="104.4" height="6" fill="#5b8ae6" /><rect x="888" y="570.8" width="11" height="16" fill="#1d3a8a" rx="5"/><rect x="916.7" y="567.6" width="127.7" height="448.4" fill="#3f6fd8" /><rect x="920.7" y="561.6" width="118.7" height="6" fill="#3f6fd8" /><rect x="962.7" y="582.3" width="11" height="16" fill="#1d3a8a" rx="5"/><rect x="946.5" y="581.7" width="11" height="16" fill="#1d3a8a" rx="5"/><rect x="946.2" y="584.9" width="11" height="16" fill="#1d3a8a" rx="5"/><rect x="1043.4" y="528.8" width="74.4" height="487.2" fill="#2f58c4" /><rect x="1052.1" y="576.8" width="11" height="16" fill="#1d3a8a" rx="5"/><rect x="1072.7" y="544.4" width="11" height="16" fill="#1d3a8a" rx="5"/><rect x="1116.8" y="548.6" width="86.9" height="467.4" fill="#2f58c4" /><rect x="1129.9" y="575.6" width="11" height="16" fill="#1d3a8a" rx="5"/><rect x="1202.7" y="541.5" width="110" height="474.5" fill="#9cc0f5" /><rect x="1218.6" y="560.5" width="11" height="16" fill="#1d3a8a" rx="5"/><rect x="1211.6" y="578.7" width="11" height="16" fill="#1d3a8a" rx="5"/><rect x="-39.6" y="596" width="113.7" height="482" fill="#5b8ae6" /><rect x="-35.6" y="590" width="104.7" height="6" fill="#5b8ae6" /><rect x="-15.6" y="635.5" width="11" height="16" fill="#1d3a8a" rx="5"/><rect x="73.1" y="600.1" width="76.5" height="477.9" fill="#5b8ae6" /><rect x="114.1" y="640.1" width="11" height="16" fill="#1d3a8a" rx="5"/><rect x="101.2" y="643.5" width="11" height="16" fill="#1d3a8a" rx="5"/><rect x="148.6" y="632.2" width="130.3" height="445.8" fill="#9cc0f5" /><rect x="152.6" y="626.2" width="121.3" height="6" fill="#9cc0f5" /><rect x="230" y="647" width="11" height="16" fill="#1d3a8a" rx="5"/><rect x="186.9" y="647.9" width="11" height="16" fill="#1d3a8a" rx="5"/><rect x="165.1" y="647.6" width="11" height="16" fill="#1d3a8a" rx="5"/><rect x="277.9" y="630.1" width="121.6" height="447.9" fill="#7aa6f0" /><rect x="398.5" y="619.7" width="103.5" height="458.3" fill="#3f6fd8" /><rect x="431.1" y="644.3" width="11" height="16" fill="#1d3a8a" rx="5"/><rect x="429" y="637.2" width="11" height="16" fill="#1d3a8a" rx="5"/><rect x="501" y="630.4" width="106.8" height="447.6" fill="#2f58c4" /><rect x="551.6" y="645.4" width="11" height="16" fill="#1d3a8a" rx="5"/><rect x="524" y="646.5" width="11" height="16" fill="#1d3a8a" rx="5"/><rect x="606.8" y="605.4" width="118.1" height="472.6" fill="#7aa6f0" /><rect x="610.8" y="599.4" width="109.1" height="6" fill="#7aa6f0" /><rect x="656.3" y="626.8" width="11" height="16" fill="#1d3a8a" rx="5"/><rect x="723.9" y="626.7" width="101.5" height="451.3" fill="#5b8ae6" /><rect x="727.9" y="620.7" width="92.5" height="6" fill="#5b8ae6" /><rect x="750.3" y="645.4" width="11" height="16" fill="#1d3a8a" rx="5"/><rect x="824.4" y="618.4" width="109.9" height="459.6" fill="#7aa6f0" /><rect x="828.4" y="612.4" width="100.9" height="6" fill="#7aa6f0" /><rect x="861" y="637.5" width="11" height="16" fill="#1d3a8a" rx="5"/><rect x="893.6" y="644" width="11" height="16" fill="#1d3a8a" rx="5"/><rect x="897.6" y="637.7" width="11" height="16" fill="#1d3a8a" rx="5"/><rect x="933.3" y="592.7" width="124.2" height="485.3" fill="#3f6fd8" /><rect x="937.3" y="586.7" width="115.2" height="6" fill="#3f6fd8" /><rect x="1006.8" y="624.8" width="11" height="16" fill="#1d3a8a" rx="5"/><rect x="1014.6" y="610.4" width="11" height="16" fill="#1d3a8a" rx="5"/><rect x="948.9" y="620.3" width="11" height="16" fill="#1d3a8a" rx="5"/><rect x="1056.5" y="619.2" width="95.6" height="458.8" fill="#2f58c4" /><rect x="1119.4" y="645.6" width="11" height="16" fill="#1d3a8a" rx="5"/><rect x="1082.7" y="638.7" width="11" height="16" fill="#1d3a8a" rx="5"/><rect x="1073.9" y="644.2" width="11" height="16" fill="#1d3a8a" rx="5"/><rect x="1151.1" y="609.1" width="74.8" height="468.9" fill="#3f6fd8" /><rect x="1224.9" y="617" width="112.5" height="461" fill="#2f58c4" /><rect x="1269.6" y="642.5" width="11" height="16" fill="#1d3a8a" rx="5"/><rect x="1263.1" y="645.8" width="11" height="16" fill="#1d3a8a" rx="5"/><rect x="-9.8" y="653.7" width="93.6" height="486.3" fill="#3f6fd8" /><rect x="-5.8" y="647.7" width="84.6" height="6" fill="#3f6fd8" /><rect x="38" y="669.5" width="11" height="16" fill="#1d3a8a" rx="5"/><rect x="57.8" y="678.5" width="11" height="16" fill="#1d3a8a" rx="5"/><rect x="82.8" y="678.8" width="89.4" height="461.2" fill="#9cc0f5" /><rect x="120.7" y="706.5" width="11" height="16" fill="#1d3a8a" rx="5"/><rect x="171.1" y="658.8" width="108.5" height="481.2" fill="#5b8ae6" /><rect x="219.8" y="705.7" width="11" height="16" fill="#1d3a8a" rx="5"/><rect x="243.7" y="698" width="11" height="16" fill="#1d3a8a" rx="5"/><rect x="225.7" y="686" width="11" height="16" fill="#1d3a8a" rx="5"/><rect x="278.6" y="666.2" width="92.2" height="473.8" fill="#9cc0f5" /><rect x="282.6" y="660.2" width="83.2" height="6" fill="#9cc0f5" /><rect x="369.8" y="696.5" width="95.2" height="443.5" fill="#5b8ae6" /><rect x="464" y="696.1" width="103.5" height="443.9" fill="#9cc0f5" /><rect x="468" y="690.1" width="94.5" height="6" fill="#9cc0f5" /><rect x="534.5" y="710.6" width="11" height="16" fill="#1d3a8a" rx="5"/><rect x="530.4" y="710.7" width="11" height="16" fill="#1d3a8a" rx="5"/><rect x="519.5" y="710.6" width="11" height="16" fill="#1d3a8a" rx="5"/><rect x="566.6" y="675.3" width="120.2" height="464.7" fill="#5b8ae6" /><rect x="570.6" y="669.3" width="111.2" height="6" fill="#5b8ae6" /><rect x="648.6" y="697.1" width="11" height="16" fill="#1d3a8a" rx="5"/><rect x="660.8" y="689.6" width="11" height="16" fill="#1d3a8a" rx="5"/><rect x="658.2" y="698.2" width="11" height="16" fill="#1d3a8a" rx="5"/><rect x="685.8" y="652.6" width="105.6" height="487.4" fill="#5b8ae6" /><rect x="689.8" y="646.6" width="96.6" height="6" fill="#5b8ae6" /><rect x="744.8" y="704.9" width="11" height="16" fill="#1d3a8a" rx="5"/><rect x="790.3" y="689" width="116.3" height="451" fill="#5b8ae6" /><rect x="816.3" y="707.4" width="11" height="16" fill="#1d3a8a" rx="5"/><rect x="874.8" y="708.5" width="11" height="16" fill="#1d3a8a" rx="5"/><rect x="905.7" y="681.5" width="102.4" height="458.5" fill="#7aa6f0" /><rect x="909.7" y="675.5" width="93.4" height="6" fill="#7aa6f0" /><rect x="947" y="701.6" width="11" height="16" fill="#1d3a8a" rx="5"/><rect x="940.5" y="702.8" width="11" height="16" fill="#1d3a8a" rx="5"/><rect x="979.8" y="708.1" width="11" height="16" fill="#1d3a8a" rx="5"/><rect x="1007" y="684.1" width="86.8" height="455.9" fill="#3f6fd8" /><rect x="1047" y="700.2" width="11" height="16" fill="#1d3a8a" rx="5"/><rect x="1092.9" y="674.2" width="108.5" height="465.8" fill="#7aa6f0" /><rect x="1200.3" y="659.4" width="74.7" height="480.6" fill="#3f6fd8" /><rect x="1204.3" y="653.4" width="65.7" height="6" fill="#3f6fd8" /><rect x="1235.1" y="676.3" width="11" height="16" fill="#1d3a8a" rx="5"/><path d="M554.9,750 L554.9,655.2 A55,55 0 1 1 645.1,655.2 L645.1,750 Z" fill="#1d3a8a" /><circle cx="624" cy="690" r="5" fill="#e9b949" /><rect x="420" y="690" width="140" height="12" fill="#e9eef7" /><rect x="432" y="702" width="116" height="12" fill="#e9eef7" /><rect x="444" y="714" width="92" height="12" fill="#e9eef7" /><rect x="456" y="726" width="68" height="12" fill="#e9eef7" /><rect x="468" y="738" width="44" height="12" fill="#e9eef7" /><rect x="949" y="0" width="2" height="509" fill="#1b1a1f" opacity=".5"/><circle cx="950" cy="539.8" r="37.4" fill="#f4c35a" opacity=".25"/><polygon points="939,520 961,520 967.6,539.8 961,559.6 939,559.6 932.4,539.8" fill="#6b4a2b" /><polygon points="943.4,528.8 956.6,528.8 959.9,539.8 956.6,550.8 943.4,550.8 940.1,539.8" fill="#f4c35a" /><polygon points="939,520 950,506.8 961,520" fill="#6b4a2b" /><path d="M133,760 Q139.2,680 145,600 L152,600 Q149.2,680 148,760 Z" fill="#6b4a2b" /><path d="M148,600 Q114.9,574 84.9,605.5 Q114.9,588 148,608 Z" fill="#0b5a40" /><path d="M148,600 Q127.8,551.1 109.5,586.4 Q127.8,565.1 148,608 Z" fill="#0b5a40" /><path d="M148,600 Q148,542.4 148,579.2 Q148,556.4 148,608 Z" fill="#0b5a40" /><path d="M148,600 Q168.2,551.1 186.5,586.4 Q168.2,565.1 148,608 Z" fill="#0b5a40" /><path d="M148,600 Q181.1,574 211.1,605.5 Q181.1,588 148,608 Z" fill="#0b5a40" /><path d="M148,600 Q182,602.8 212.9,629.6 Q182,616.8 148,608 Z" fill="#0b5a40" /><path d="M148,600 Q114.9,574 84.9,605.5 Q114.9,588 148,608 Z" fill="#0b5a40" /></svg>
