<svg xmlns="http://www.w3.org/2000/svg" viewBox="0 0 1200 750" role="img" aria-label="Fès" preserveAspectRatio="xMidYMid slice"><defs><linearGradient id="s" x1="0" y1="0" x2="0" y2="1"><stop offset="0" stop-color="#f2d6a8"/><stop offset="1" stop-color="#f8ead0"/></linearGradient></defs><rect width="1200" height="750" fill="url(#s)"/><polygon points="0,750 0,333.4 113.3,410.3 271.3,304.7 403.2,391 547.2,333.3 683.5,395.8 820.4,318.3 912.6,401.5 1080.1,345.9 1200,413 1200,750" fill="#d6b98e" /><rect x="-20" y="477.5" width="66.6" height="442.5" fill="#dcc29b" /><rect x="-16" y="471.5" width="57.6" height="6" fill="#dcc29b" /><rect x="14.2" y="492.2" width="11" height="16" fill="#9c7b54" rx="5"/><rect x="45.6" y="471.3" width="76.7" height="448.7" fill="#dcc29b" /><rect x="49.6" y="465.3" width="67.7" height="6" fill="#dcc29b" /><rect x="121.3" y="429.5" width="49.7" height="490.5" fill="#e8d3b0" /><rect x="133.4" y="470.9" width="11" height="16" fill="#9c7b54" rx="5"/><rect x="144.4" y="443.8" width="11" height="16" fill="#9c7b54" rx="5"/><rect x="144.4" y="476" width="11" height="16" fill="#9c7b54" rx="5"/><rect x="170" y="464.5" width="54.6" height="455.5" fill="#dcc29b" /><rect x="174" y="458.5" width="45.6" height="6" fill="#dcc29b" /><rect x="180.3" y="488.2" width="11" height="16" fill="#9c7b54" rx="5"/><rect x="192.3" y="487.8" width="11" height="16" fill="#9c7b54" rx="5"/><rect x="195.2" y="484.6" width="11" height="16" fill="#9c7b54" rx="5"/><rect x="223.6" y="442.1" width="79.9" height="477.9" fill="#efdcbc" /><rect x="227.6" y="436.1" width="70.9" height="6" fill="#efdcbc" /><rect x="259.9" y="480" width="11" height="16" fill="#9c7b54" rx="5"/><rect x="233.9" y="463.9" width="11" height="16" fill="#9c7b54" rx="5"/><rect x="302.5" y="472" width="52.6" height="448" fill="#e8d3b0" /><rect x="316.5" y="488.6" width="11" height="16" fill="#9c7b54" rx="5"/><rect x="318.4" y="487.5" width="11" height="16" fill="#9c7b54" rx="5"/><rect x="315.1" y="487.1" width="11" height="16" fill="#9c7b54" rx="5"/><rect x="354.1" y="415.2" width="78.5" height="504.8" fill="#efdcbc" /><rect x="369.9" y="452.3" width="11" height="16" fill="#9c7b54" rx="5"/><rect x="431.6" y="416" width="80.6" height="504" fill="#efdcbc" /><rect x="435.6" y="410" width="71.6" height="6" fill="#efdcbc" /><rect x="481.4" y="476.6" width="11" height="16" fill="#9c7b54" rx="5"/><rect x="450.9" y="431.9" width="11" height="16" fill="#9c7b54" rx="5"/><rect x="511.2" y="453.2" width="53.6" height="466.8" fill="#e8d3b0" /><rect x="524" y="478.6" width="11" height="16" fill="#9c7b54" rx="5"/><rect x="539.2" y="481.9" width="11" height="16" fill="#9c7b54" rx="5"/><rect x="563.8" y="466" width="46.7" height="454" fill="#efdcbc" /><rect x="583.5" y="484.3" width="11" height="16" fill="#9c7b54" rx="5"/><rect x="581" y="483.6" width="11" height="16" fill="#9c7b54" rx="5"/><rect x="609.5" y="466.2" width="80.9" height="453.8" fill="#dcc29b" /><rect x="613.5" y="460.2" width="71.9" height="6" fill="#dcc29b" /><rect x="689.4" y="464.7" width="75.4" height="455.3" fill="#e8d3b0" /><rect x="723.9" y="483.1" width="11" height="16" fill="#9c7b54" rx="5"/><rect x="723.9" y="484" width="11" height="16" fill="#9c7b54" rx="5"/><rect x="708.6" y="485" width="11" height="16" fill="#9c7b54" rx="5"/><rect x="763.8" y="412" width="78.7" height="508" fill="#e8d3b0" /><rect x="808.5" y="447.8" width="11" height="16" fill="#9c7b54" rx="5"/><rect x="785.8" y="436.1" width="11" height="16" fill="#9c7b54" rx="5"/><rect x="841.5" y="407.8" width="41.1" height="512.2" fill="#efdcbc" /><rect x="845.5" y="401.8" width="32.1" height="6" fill="#efdcbc" /><rect x="854.7" y="429" width="11" height="16" fill="#9c7b54" rx="5"/><rect x="881.7" y="395.8" width="66" height="524.2" fill="#efdcbc" /><rect x="902.8" y="422.8" width="11" height="16" fill="#9c7b54" rx="5"/><rect x="946.7" y="387.8" width="79.1" height="532.2" fill="#e8d3b0" /><rect x="955.6" y="483.7" width="11" height="16" fill="#9c7b54" rx="5"/><rect x="997" y="475.1" width="11" height="16" fill="#9c7b54" rx="5"/><rect x="969.5" y="406.9" width="11" height="16" fill="#9c7b54" rx="5"/><rect x="1024.8" y="385.3" width="76.1" height="534.7" fill="#e8d3b0" /><rect x="1099.9" y="426.7" width="80.1" height="493.3" fill="#e8d3b0" /><rect x="1103.9" y="420.7" width="71.1" height="6" fill="#e8d3b0" /><rect x="1154.4" y="448.9" width="11" height="16" fill="#9c7b54" rx="5"/><rect x="1133.9" y="470.6" width="11" height="16" fill="#9c7b54" rx="5"/><rect x="1155.3" y="486.5" width="11" height="16" fill="#9c7b54" rx="5"/><rect x="1179.1" y="411" width="71.2" height="509" fill="#efdcbc" /><rect x="1183.1" y="405" width="62.2" height="6" fill="#efdcbc" /><rect x="1204.7" y="458.6" width="11" height="16" fill="#9c7b54" rx="5"/><rect x="1191.9" y="439.6" width="11" height="16" fill="#9c7b54" rx="5"/><rect x="330" y="330" width="540" height="420" fill="#2f4bd8" /><rect x="330" y="330" width="540" height="30" fill="#e9b949" /><rect x="345" y="336" width="40" height="18" fill="#172d94" /><rect x="403" y="336" width="40" height="18" fill="#172d94" /><rect x="461" y="336" width="40" height="18" fill="#172d94" /><rect x="519" y="336" width="40" height="18" fill="#172d94" /><rect x="577" y="336" width="40" height="18" fill="#172d94" /><rect x="635" y="336" width="40" height="18" fill="#172d94" /><rect x="693" y="336" width="40" height="18" fill="#172d94" /><rect x="751" y="336" width="40" height="18" fill="#172d94" /><rect x="809" y="336" width="40" height="18" fill="#172d94" /><path d="M390.8,750 L390.8,603 A60,60 0 1 1 489.2,603 L489.2,750 Z" fill="#d9c3a0" /><path d="M550.8,750 L550.8,543 A60,60 0 1 1 649.2,543 L649.2,750 Z" fill="#f8ead0" /><path d="M710.8,750 L710.8,603 A60,60 0 1 1 809.2,603 L809.2,750 Z" fill="#d9c3a0" /><rect x="330" y="700" width="540" height="50" fill="#173a8f" /><rect x="980" y="300" width="70" height="260" fill="#c9a27a" /><path d="M1008,378 L1008,360 Q1015,346 1022,360 L1022,378 Z" fill="#7a5a3a" /><path d="M1008,435.2 L1008,417.2 Q1015,403.2 1022,417.2 L1022,435.2 Z" fill="#7a5a3a" /><path d="M1008,492.4 L1008,474.4 Q1015,460.4 1022,474.4 L1022,492.4 Z" fill="#7a5a3a" /><rect x="980" y="310" width="70" height="16" fill="#0f8a5f" /><rect x="983" y="313" width="5.7" height="10" fill="#7a5a3a" opacity=".55"/><rect x="994.7" y="313" width="5.7" height="10" fill="#7a5a3a" opacity=".55"/><rect x="1006.3" y="313" width="5.7" height="10" fill="#7a5a3a" opacity=".55"/><rect x="1018" y="313" width="5.7" height="10" fill="#7a5a3a" opacity=".55"/><rect x="1029.7" y="313" width="5.7" height="10" fill="#7a5a3a" opacity=".55"/><rect x="1041.3" y="313" width="5.7" height="10" fill="#7a5a3a" opacity=".55"/><polygon points="982,300 987,284 992,300" fill="#c9a27a" /><polygon points="996,300 1001,284 1006,300" fill="#c9a27a" /><polygon points="1010,300 1015,284 1020,300" fill="#c9a27a" /><polygon points="1024,300 1029,284 1034,300" fill="#c9a27a" /><polygon points="1038,300 1043,284 1048,300" fill="#c9a27a" /><rect x="1000.3" y="258.4" width="29.4" height="41.6" fill="#c9a27a" /><rect x="1000.3" y="264.4" width="29.4" height="6" fill="#0f8a5f" /><path d="M1000.3,258.4 Q1015,236.3 1029.7,258.4 Z" fill="#0f8a5f" /><rect x="1013.5" y="197.7" width="3" height="50" fill="#7a5a3a" /><circle cx="1015" cy="233.7" r="7" fill="#e9b949" /><circle cx="1015" cy="220.7" r="5.5" fill="#e9b949" /><circle cx="1015" cy="207.7" r="4" fill="#e9b949" /></svg>
